<svg xmlns="http://www.w3.org/2000/svg" width="2408" height="1646" viewBox="0 0 2408 1646">
  <g fill="none" opacity=".041">
    <ellipse cx="617.5" cy="1029.5" fill="#AB71FF" rx="617.5" ry="616.5" style="mix-blend-mode:overlay"/>
    <circle cx="1872.5" cy="567.5" r="535.5" fill="#AB71FF" style="mix-blend-mode:overlay"/>
    <path fill="#592ACB" d="M512.843,308.16 L1286.433,1082.144 C1320.26156,1115.98649 1366.15134,1135.00013 1414.002,1135 C1461.85405,1135.00119 1507.74546,1115.98748 1541.575,1082.144 L2315.161,308.161 C2385.611,237.649 2385.611,123.373 2315.161,52.862 C2244.713,-17.621 2130.465,-17.621 2060.018,52.862 L1414.004,699.226 L767.987,52.862 C697.539,-17.621 583.291,-17.621 512.843,52.862 C477.605,88.118 460,134.307 460,180.51 C460,226.687 477.618,272.905 512.843,308.16 Z"/>
  </g>
</svg>
